# xmcd
# Copyright (C) 1995-1998 Ti Kan
#
# Track frame offsets:
#       150
#       22779
#       40001
#       59705
#       78514
#       104725
#       124366
#       150483
#       172064
#       190420
#
# Disc length: 2715 seconds
#
# Revision: 0
# Processed by: cddbd v1.5.2PL0 Copyright (c) Steve Scherf et al.
# Submitted via: CD-Import v1.0
#
DISCID=860a990a
DTITLE=Editors - An End Has A Start
DYEAR=2007
DGENRE=
TTITLE0=Smokers Outside The Hospital Doors
TTITLE1=An End Has A Start
TTITLE2=The Weight Of The World
TTITLE3=Bones
TTITLE4=When Anger Shows
TTITLE5=The Racing Rats
TTITLE6=Push Your Head Towards The Air
TTITLE7=Escape The Nest
TTITLE8=Spiders
TTITLE9=Well Worn Hand
EXTD=
EXTT0=
EXTT1=
EXTT2=
EXTT3=
EXTT4=
EXTT5=
EXTT6=
EXTT7=
EXTT8=
EXTT9=
PLAYORDER=
